<?xml version="1.0" encoding="UTF-8" standalone="no"?>
<!-- Created with Inkscape (http://www.inkscape.org/) -->

<svg
   width="210mm"
   height="297mm"
   viewBox="0 0 210 297"
   version="1.1"
   id="svg5"
   inkscape:version="1.1.2 (0a00cf5339, 2022-02-04)"
   sodipodi:docname="logo.svg"
   xmlns:inkscape="http://www.inkscape.org/namespaces/inkscape"
   xmlns:sodipodi="http://sodipodi.sourceforge.net/DTD/sodipodi-0.dtd"
   xmlns:xlink="http://www.w3.org/1999/xlink"
   xmlns="http://www.w3.org/2000/svg"
   xmlns:svg="http://www.w3.org/2000/svg">
  <sodipodi:namedview
     id="namedview7"
     pagecolor="#ffffff"
     bordercolor="#666666"
     borderopacity="1.0"
     inkscape:pageshadow="2"
     inkscape:pageopacity="0.0"
     inkscape:pagecheckerboard="0"
     inkscape:document-units="mm"
     showgrid="false"
     inkscape:zoom="0.70710678"
     inkscape:cx="-9.0150659"
     inkscape:cy="334.41475"
     inkscape:window-width="3370"
     inkscape:window-height="1369"
     inkscape:window-x="0"
     inkscape:window-y="0"
     inkscape:window-maximized="1"
     inkscape:current-layer="layer1" />
  <defs
     id="defs2">
    <linearGradient
       inkscape:collect="always"
       id="linearGradient6131">
      <stop
         style="stop-color:#ffffff;stop-opacity:1"
         offset="0"
         id="stop6127" />
      <stop
         style="stop-color:#ffe6d5;stop-opacity:1"
         offset="1"
         id="stop6129" />
    </linearGradient>
    <radialGradient
       inkscape:collect="always"
       xlink:href="#linearGradient6131"
       id="radialGradient7782"
       cx="24.409863"
       cy="20.739618"
       fx="24.409863"
       fy="20.739618"
       r="11.106146"
       gradientTransform="matrix(7.9328561,1.6200877,-1.5628832,7.6527514,-52.888009,-88.227507)"
       gradientUnits="userSpaceOnUse" />
  </defs>
  <g
     inkscape:label="Layer 1"
     inkscape:groupmode="layer"
     id="layer1">
    <path
       id="path31"
       style="opacity:1;fill:url(#radialGradient7782);fill-opacity:1;stroke:#552200;stroke-width:0.00439113;stroke-miterlimit:4;stroke-dasharray:none;stroke-opacity:0.628"
       d="m 177.06355,97.409472 c 0,6.943208 -12.81679,35.025648 -14.5797,42.052408 -7.50514,29.91464 -18.40588,36.66482 -50.68826,36.66482 -14.211619,0 -40.428093,-8.06973 -51.599045,-14.56338 -20.164918,-11.72182 -20.583502,-28.04011 -20.583502,-51.52957 0,-15.238752 12.339913,-24.587348 21.802592,-35.766848 C 74.619363,58.6676 88.573082,43.940801 111.79559,43.940801 c 19.88145,0 25.69151,14.519189 38.74594,26.425526 13.12168,11.96768 26.52202,8.745192 26.52202,27.043145 z"
       sodipodi:nodetypes="sssssssss" />
    <ellipse
       style="opacity:1;fill:#ffcc00;fill-opacity:1;fill-rule:nonzero;stroke:none;stroke-width:1.65962;stroke-miterlimit:4;stroke-dasharray:none;stroke-dashoffset:0;stroke-opacity:0.628"
       id="path2101"
       cx="78.428146"
       cy="112.09682"
       rx="23.705563"
       ry="22.709513" />
    <path
       id="path2101-6"
       style="fill:#d4aa00;stroke-width:1.0536;stroke-opacity:0.628"
       d="m 98.828619,106.70424 c 3.541021,2.52979 2.798421,8.93267 -0.273119,14.4676 -3.653322,6.58322 -10.44382,12.03749 -15.044453,9.66554 -3.253613,-1.67746 2.286438,-7.0148 4.139556,-10.17167 3.017997,-5.1413 6.327168,-17.42705 11.178047,-13.96147 z"
       sodipodi:nodetypes="sssas" />
    <ellipse
       style="opacity:1;fill:#ffeeaa;fill-opacity:1;fill-rule:nonzero;stroke:none;stroke-width:1.65962;stroke-miterlimit:4;stroke-dasharray:none;stroke-dashoffset:0;stroke-opacity:0.628"
       id="path2321"
       cx="63.165287"
       cy="108.54398"
       rx="4.5523152"
       ry="4.7863097" />
    <path
       id="path2321-3"
       style="fill:#ffeeaa;stroke-width:0.666351;stroke-opacity:0.628"
       d="m 69.813544,98.29289 c 0,1.061343 -1.954831,4.51827 -2.964287,4.51827 -1.009456,0 -2.38331,-0.47008 -2.864027,-1.24077 -0.480729,-0.77071 -0.05261,-1.85189 0.825958,-3.013368 0.878752,-1.161472 2.422527,-2.185864 3.174578,-2.185864 0.752044,0 1.827778,0.86039 1.827778,1.921732 z"
       sodipodi:nodetypes="zzzzzz" />
    <g
       id="g15984"
       transform="matrix(6.262755,0,0,6.262755,-44.534692,-19.853394)">
      <path
         id="rect8630-3"
         style="fill:#800000;stroke:#d38d5f;stroke-width:0.00026455;stroke-opacity:0.628"
         d="m 28.202925,13.839197 c 0.609124,0.381751 1.470864,0.271429 2.032372,0.72136 0.426835,0.342022 0.424977,1.067989 0.869712,1.386476 0.5039,0.360862 1.294172,0.0776 1.805572,0.427766 0.569895,0.390263 0.930529,1.093009 1.171874,1.703463 0.01528,0.772599 -0.49406,1.795787 -0.995192,2.081024 -0.437697,-0.165345 -0.634541,-1.148627 -1.163415,-1.495834 -0.504618,-0.33134 -1.248506,-0.115558 -1.750579,-0.450745 -0.511747,-0.3416 -0.593136,-1.137881 -1.108618,-1.471874 -0.614326,-0.398036 -1.576617,-0.137499 -2.140867,-0.489037 -0.596091,-0.371382 -1.078396,-1.190193 -1.218228,-1.623056 0.120535,-0.416995 0.957381,-1.776652 1.294051,-1.976592 0.409811,0.152382 0.725898,0.887845 1.203316,1.187048 z"
         sodipodi:nodetypes="aaaaccaaascca" />
      <path
         id="rect8630-7-5"
         style="fill:#ffb380;stroke:#ffaaaa;stroke-width:0.00026455;stroke-opacity:0.628"
         d="m 29.717174,15.095563 c 0.56005,0.351536 0.749166,1.127231 1.291205,1.505948 0.533793,0.372947 1.319352,0.279712 1.829888,0.683912 0.477507,0.378053 0.773877,0.908675 1.015222,1.519129 -0.0979,0.329813 -0.129393,0.440083 -0.360026,0.754453 -0.437696,-0.165346 -0.575256,-1.246897 -1.103899,-1.640591 -0.477625,-0.355694 -1.195932,-0.223292 -1.705855,-0.530899 -0.554265,-0.334361 -0.814044,-1.048447 -1.375228,-1.371061 -0.573781,-0.329858 -1.354731,-0.158158 -1.91898,-0.509696 -0.596091,-0.371382 -1.208603,-0.969831 -1.348435,-1.402693 0.213268,-0.381863 0.297775,-0.537093 0.547248,-0.844196 0.175934,0.204658 0.616466,1.015979 1.148894,1.311052 0.532427,0.295075 1.401681,0.161666 1.979969,0.524643 z"
         sodipodi:nodetypes="aaaccaaasccca" />
      <path
         style="fill:#f4d7d7;stroke:none;stroke-width:0.194136px;stroke-linecap:butt;stroke-linejoin:miter;stroke-opacity:1"
         d="m 29.584706,14.368733 c 0.03299,-0.03166 -1.060304,-0.198522 -1.384263,-0.380156 -0.30752,-0.172417 -0.503972,-0.451017 -0.530432,-0.419307 -0.02749,0.03294 0.160495,0.355756 0.477192,0.534569 0.309297,0.174636 1.405732,0.295388 1.437503,0.264894 z"
         id="path11666-6"
         sodipodi:nodetypes="sssss" />
      <path
         style="fill:#f4d7d7;stroke:none;stroke-width:0.194136px;stroke-linecap:butt;stroke-linejoin:miter;stroke-opacity:1"
         d="m 30.761951,18.258321 c 0.03299,-0.03166 -0.06572,-0.01878 -0.389677,-0.20042 -0.30752,-0.172417 -0.509656,-0.468974 -0.536116,-0.437264 -0.02749,0.03294 0.166179,0.373713 0.482876,0.552526 0.309297,0.174636 0.411146,0.115652 0.442917,0.08516 z"
         id="path11666-2"
         sodipodi:nodetypes="sssss" />
    </g>
    <g
       id="g15976"
       transform="matrix(6.262755,0,0,6.262755,-44.534692,-19.853394)">
      <path
         id="rect8630"
         style="fill:#800000;stroke:#d38d5f;stroke-width:0.00026455;stroke-opacity:0.628"
         d="m 23.116366,14.650314 c 0.609124,0.38175 1.470864,0.271429 2.032373,0.721359 0.426834,0.342022 0.424976,1.06799 0.869712,1.386476 0.503899,0.360863 1.294171,0.0776 1.805571,0.427767 0.569896,0.390262 0.930529,1.093009 1.171874,1.703463 0.01528,0.772599 -0.49406,1.795787 -0.995192,2.081024 -0.437696,-0.165345 -0.634541,-1.148627 -1.163415,-1.495834 -0.504618,-0.331341 -1.248505,-0.115558 -1.750578,-0.450745 -0.511747,-0.341601 -0.593137,-1.137882 -1.108618,-1.471874 -0.614327,-0.398037 -1.576617,-0.1375 -2.140868,-0.489038 -0.59609,-0.371382 -1.078396,-1.190193 -1.218228,-1.623055 0.120536,-0.416996 0.957382,-1.776653 1.294052,-1.976593 0.409811,0.152382 0.725898,0.887846 1.203316,1.187049 z"
         sodipodi:nodetypes="aaaaccaaascca" />
      <path
         id="rect8630-7"
         style="fill:#ffb380;stroke:#ffaaaa;stroke-width:0.00026455;stroke-opacity:0.628"
         d="m 24.630616,15.906679 c 0.560049,0.351536 0.749165,1.127232 1.291205,1.505948 0.533793,0.372948 1.319351,0.279712 1.829887,0.683913 0.477508,0.378052 0.773877,0.908675 1.015223,1.519129 -0.0979,0.329813 -0.129394,0.440083 -0.360026,0.754452 -0.437696,-0.165345 -0.575257,-1.246896 -1.1039,-1.64059 -0.477624,-0.355695 -1.195932,-0.223292 -1.705855,-0.5309 -0.554264,-0.33436 -0.814044,-1.048447 -1.375227,-1.371061 -0.573782,-0.329857 -1.354731,-0.158158 -1.918981,-0.509695 -0.596091,-0.371382 -1.208603,-0.969831 -1.348435,-1.402694 0.213268,-0.381862 0.297775,-0.537092 0.547248,-0.844196 0.175935,0.204658 0.616467,1.015979 1.148894,1.311052 0.532427,0.295076 1.401681,0.161667 1.979969,0.524644 z"
         sodipodi:nodetypes="aaaccaaasccca" />
      <path
         style="fill:#f4d7d7;stroke:none;stroke-width:0.194136px;stroke-linecap:butt;stroke-linejoin:miter;stroke-opacity:1"
         d="m 22.613698,17.156793 c 0.03299,-0.03166 -0.327007,-0.10305 -0.650966,-0.284684 -0.30752,-0.172417 -0.578321,-0.457218 -0.604781,-0.425508 -0.02749,0.03294 0.234844,0.361957 0.551541,0.54077 0.309297,0.174636 0.672435,0.199916 0.704206,0.169422 z"
         id="path11666"
         sodipodi:nodetypes="sssss" />
      <path
         style="fill:#f4d7d7;stroke:none;stroke-width:0.194136px;stroke-linecap:butt;stroke-linejoin:miter;stroke-opacity:1"
         d="m 25.995027,16.787836 c -0.162711,-0.107627 -0.260603,-0.242313 -0.320577,-0.351656 -0.03543,0.211562 0.318778,0.548093 0.721666,0.528336 -0.221196,-0.05964 -0.326748,-0.127506 -0.401089,-0.17668 z"
         id="path11666-2-9"
         sodipodi:nodetypes="sccs" />
    </g>
    <g
       id="g15968"
       transform="matrix(6.0348981,-1.6739491,1.6739491,6.0348981,-185.00947,40.790569)">
      <path
         style="fill:#803300;stroke:none;stroke-width:0.282765px;stroke-linecap:round;stroke-linejoin:round;stroke-opacity:1"
         d="m 36.520154,30.385019 c -0.01393,-0.592287 11.515443,-6.023369 12.263706,-5.699108 0.25835,0.828265 -3.077461,8.149823 -3.549617,8.20454 -0.712542,0.123262 -8.339398,-1.698981 -8.714089,-2.505432 z"
         id="path14870-0-9"
         sodipodi:nodetypes="cccc" />
      <path
         style="fill:#e9c6af;stroke:none;stroke-width:0.264583px;stroke-linecap:round;stroke-linejoin:round;stroke-opacity:1"
         d="m 36.981556,30.207178 c -0.05563,-0.357641 11.113323,-5.601972 11.576203,-5.43489 0.241078,0.777131 -3.004108,7.734308 -3.444698,7.785647 -0.664905,0.115652 -7.707769,-1.682974 -8.131505,-2.350757 z"
         id="path14870-0"
         sodipodi:nodetypes="cccc" />
      <path
         style="fill:#ffffff;stroke:none;stroke-width:0.246845px;stroke-linecap:round;stroke-linejoin:round;stroke-opacity:1"
         d="m 37.451725,30.13829 c -0.0519,-0.333652 10.368642,-5.226223 10.800505,-5.070348 0.224924,0.725005 -2.802809,7.215535 -3.213876,7.26343 -0.620351,0.107895 -7.191287,-1.57009 -7.586629,-2.193082 z"
         id="path14870"
         sodipodi:nodetypes="cccc" />
    </g>
    <ellipse
       style="opacity:1;fill:#e9c6af;fill-opacity:1;fill-rule:nonzero;stroke:none;stroke-width:0.00898567;stroke-linecap:round;stroke-linejoin:round;stroke-miterlimit:4;stroke-dasharray:none;stroke-dashoffset:0;stroke-opacity:0.628"
       id="path16035"
       cx="137.91389"
       cy="157.78781"
       rx="2.8716106"
       ry="2.4017332" />
    <ellipse
       style="fill:#e9c6af;fill-opacity:1;fill-rule:nonzero;stroke:none;stroke-width:0.00382553;stroke-linecap:round;stroke-linejoin:round;stroke-miterlimit:4;stroke-dasharray:none;stroke-dashoffset:0;stroke-opacity:0.628"
       id="path16035-3"
       cx="133.80144"
       cy="159.86566"
       rx="1.2225485"
       ry="1.0225046" />
    <ellipse
       style="fill:#e9c6af;fill-opacity:1;fill-rule:nonzero;stroke:none;stroke-width:0.00382553;stroke-linecap:round;stroke-linejoin:round;stroke-miterlimit:4;stroke-dasharray:none;stroke-dashoffset:0;stroke-opacity:0.628"
       id="path16035-3-6"
       cx="140.51424"
       cy="154.32413"
       rx="1.2225485"
       ry="1.0225046" />
    <ellipse
       style="fill:#e9c6af;fill-opacity:1;fill-rule:nonzero;stroke:none;stroke-width:0.00604042;stroke-linecap:round;stroke-linejoin:round;stroke-miterlimit:4;stroke-dasharray:none;stroke-dashoffset:0;stroke-opacity:0.628"
       id="path16035-3-6-0"
       cx="96.389511"
       cy="158.57269"
       rx="1.9303765"
       ry="1.6145116" />
    <ellipse
       style="fill:#e9c6af;fill-opacity:1;fill-rule:nonzero;stroke:none;stroke-width:0.00382553;stroke-linecap:round;stroke-linejoin:round;stroke-miterlimit:4;stroke-dasharray:none;stroke-dashoffset:0;stroke-opacity:0.628"
       id="path16035-3-6-6"
       cx="98.570679"
       cy="155.72195"
       rx="1.2225485"
       ry="1.0225046" />
    <circle
       style="fill:#e9c6af;fill-opacity:1;fill-rule:nonzero;stroke:none;stroke-width:0.00382553;stroke-linecap:round;stroke-linejoin:round;stroke-miterlimit:4;stroke-dasharray:none;stroke-dashoffset:0;stroke-opacity:0.628"
       id="path16035-3-6-6-6"
       cx="140.2103"
       cy="131.16748"
       r="1.7918915" />
    <ellipse
       style="fill:#e9c6af;fill-opacity:1;fill-rule:nonzero;stroke:none;stroke-width:0.00382553;stroke-linecap:round;stroke-linejoin:round;stroke-miterlimit:4;stroke-dasharray:none;stroke-dashoffset:0;stroke-opacity:0.628"
       id="path16035-3-6-6-1"
       cx="137.61333"
       cy="132.89603"
       rx="1.2225485"
       ry="1.0225046" />
    <ellipse
       style="fill:#e9c6af;fill-opacity:1;fill-rule:nonzero;stroke:none;stroke-width:0.00382553;stroke-linecap:round;stroke-linejoin:round;stroke-miterlimit:4;stroke-dasharray:none;stroke-dashoffset:0;stroke-opacity:0.628"
       id="path16035-3-6-6-8"
       cx="122.57428"
       cy="139.304"
       rx="1.2225485"
       ry="1.0225046" />
    <ellipse
       style="fill:#e9c6af;fill-opacity:1;fill-rule:nonzero;stroke:none;stroke-width:0.00382553;stroke-linecap:round;stroke-linejoin:round;stroke-miterlimit:4;stroke-dasharray:none;stroke-dashoffset:0;stroke-opacity:0.628"
       id="path16035-3-6-6-7"
       cx="141.37767"
       cy="134.19647"
       rx="1.2225485"
       ry="1.0225046" />
    <ellipse
       style="fill:#e9c6af;fill-opacity:1;fill-rule:nonzero;stroke:none;stroke-width:0.00382553;stroke-linecap:round;stroke-linejoin:round;stroke-miterlimit:4;stroke-dasharray:none;stroke-dashoffset:0;stroke-opacity:0.628"
       id="path16035-3-6-6-7-9"
       cx="124.61183"
       cy="137.53154"
       rx="1.2225485"
       ry="1.0225046" />
  </g>
</svg>
